<svg width="10" height="9" viewBox="0 0 10 9" fill="none" xmlns="http://www.w3.org/2000/svg">
<path d="M0.0695771 0.770639L3.66031 4.5L0.0695771 8.22938C-0.0231924 8.325 -0.0231924 8.45438 0.0695771 8.55001L0.473425 8.96625C0.506167 9 0.598919 9 0.626204 9C0.658946 9 0.718963 9 0.751705 8.96625L4.92634 4.6575C5.01911 4.56187 5.01911 4.43251 4.92634 4.33689L0.779017 0.0618839C0.746275 0.0281339 0.686231 0 0.626204 0C0.566177 0 0.50071 0.0337589 0.473425 0.0618839L0.0695771 0.45001C-0.0231924 0.545635 -0.0231924 0.675014 0.0695771 0.770639Z" fill="#AAAAAA"/>
<path d="M5.07369 0.770639L8.66439 4.5L5.07369 8.22938C4.98092 8.325 4.98092 8.45438 5.07369 8.55001L5.47751 8.96625C5.51025 9 5.603 9 5.63029 9C5.66303 9 5.72308 9 5.75582 8.96625L9.93042 4.6575C10.0232 4.56187 10.0232 4.43251 9.93042 4.33689L5.7831 0.0618839C5.75036 0.0281339 5.69031 0 5.63029 0C5.57026 0 5.50479 0.0337589 5.47751 0.0618839L5.07369 0.45001C4.98092 0.545635 4.98092 0.675014 5.07369 0.770639Z" fill="#AAAAAA"/>
</svg>
